<?xml version="1.0" encoding="utf-8"?>
<!-- Generator: Adobe Illustrator 27.1.1, SVG Export Plug-In . SVG Version: 6.00 Build 0)  -->
<svg version="1.1" id="Layer_1" xmlns="http://www.w3.org/2000/svg" xmlns:xlink="http://www.w3.org/1999/xlink" x="0px" y="0px"
	 viewBox="0 0 54 40" style="enable-background:new 0 0 54 40;" xml:space="preserve">
<style type="text/css">
	.st0{clip-path:url(#SVGID_00000091009846574398937690000006055468344786464940_);}
	.st1{fill:#FFFFFF;}
</style>
<g id="Group_107" transform="translate(24 9.961)">
	<g>
		<defs>
			<rect id="SVGID_1_" x="-24" y="-10" width="54" height="40"/>
		</defs>
		<clipPath id="SVGID_00000074400427120288839870000004009555759985851819_">
			<use xlink:href="#SVGID_1_"  style="overflow:visible;"/>
		</clipPath>
		
			<g id="Group_106" transform="translate(0 0)" style="clip-path:url(#SVGID_00000074400427120288839870000004009555759985851819_);">
			<path id="Path_39" class="st1" d="M-23.1,18.4c-0.5,0-0.9-0.4-0.9-0.9c0,0,0,0,0,0v-0.1c0-0.1,0-0.3,0-0.4c0,0,0,0,0,0
				c0-0.1,0-0.2,0-0.3c0.2-1.1,0.7-2.1,1.4-2.8L-0.7-8.5c1-1,2.3-1.6,3.8-1.5l25.2,0.9c0.5,0,0.9,0.4,0.8,0.9c0,0.2-0.1,0.4-0.3,0.6
				L14,7.2c-0.3,0.3-0.9,0.3-1.2,0s-0.3-0.9,0-1.2L26.2-7.5L3-8.3c-0.9,0-1.8,0.3-2.5,1l-21.9,22.4c-0.5,0.5-0.8,1.2-0.9,1.9
				c0,0,0,0.1,0,0.1s0,0.1,0,0.1c0,0.1,0,0.2,0,0.3v0.1C-22.3,18.1-22.6,18.4-23.1,18.4C-23.1,18.4-23.1,18.4-23.1,18.4"/>
			<path id="Path_40" class="st1" d="M4.7,30c-0.1,0-0.2,0-0.3-0.1l-26.9-10.3c-0.9-0.3-1.5-1.2-1.5-2.1c0,0,0,0,0,0v-0.2
				c0-0.1,0-0.2,0-0.3c0-0.1,0-0.2,0.1-0.3c0.1-0.4,0.3-0.8,0.6-1.1c0.4-0.4,1-0.7,1.7-0.7l11.8,0.4h0.1c0.5,0,0.9,0.4,0.9,0.9
				s-0.4,0.9-0.9,0.9l0,0h-0.1l-11.8-0.4c-0.1,0-0.3,0.1-0.4,0.2c-0.1,0.1-0.1,0.2-0.1,0.3c0,0,0,0,0,0c0,0,0,0.1,0,0.1v0.2
				c0,0.2,0.1,0.4,0.4,0.5L4.5,28.2L27.6,5l-0.6-0.3c-0.4-0.2-0.6-0.7-0.4-1.2s0.7-0.6,1.2-0.4L29.5,4c0.4,0.2,0.6,0.7,0.4,1.2
				c0,0.1-0.1,0.2-0.2,0.2L5.3,29.8C5.2,29.9,5,30,4.7,30 M-22.3,17.4L-22.3,17.4 M-22.3,17.2L-22.3,17.2"/>
			<path id="Path_41" class="st1" d="M15.5-3.3L15.5-3.3L5.4-3.7c-0.5,0-0.9-0.4-0.8-0.9c0-0.5,0.4-0.9,0.9-0.8l0,0l10.1,0.3
				c0.5,0,0.9,0.4,0.9,0.9C16.4-3.7,16-3.3,15.5-3.3"/>
			<path id="Path_42" class="st1" d="M10.3,0.3L10.3,0.3L3.5,0C3,0,2.6-0.4,2.7-0.8c0-0.5,0.4-0.9,0.9-0.8l6.7,0.2
				c0.5,0,0.9,0.4,0.9,0.9C11.1-0.1,10.8,0.3,10.3,0.3"/>
			<path id="Path_43" class="st1" d="M3.9,23.9c-0.1,0-0.1,0-0.2,0l-26.9-6.1c-0.2,0-0.3-0.1-0.4-0.2l0,0c-0.3-0.3-0.3-0.9,0-1.2
				c0.2-0.2,0.6-0.3,0.9-0.2l26.4,5.9l23-23l-0.7-0.2c-0.5-0.1-0.7-0.6-0.6-1.1c0.1-0.5,0.6-0.7,1.1-0.6l2.1,0.6
				c0.5,0.1,0.7,0.6,0.6,1.1c0,0.1-0.1,0.3-0.2,0.4L4.5,23.7C4.3,23.9,4.1,23.9,3.9,23.9"/>
			<path id="Path_44" class="st1" d="M-8.8,17.1c-0.3,0-0.7,0-1,0h-0.2c-0.5,0-0.9-0.4-0.8-0.9s0.4-0.9,0.9-0.8h0.2h0.1
				c3.2,0,5.6-1.9,7.2-3.6c1.4-1.4,2.4-3.1,2.9-4.9C0.4,6.4,0.8,6,1.3,6c0.2,0,0.3,0.1,0.5,0.2C3.3,7,5.1,7.5,7,7.6
				c1.5,0.1,4.1,0,5.7-1.5l0.1-0.1c0.3-0.3,0.9-0.3,1.2,0s0.3,0.9,0,1.2c-0.1,0.1-0.1,0.1-0.2,0.2C10.5,10.6,0.7,17.1-8.8,17.1
				 M1.8,8.2C1.1,9.9,0,11.5-1.3,12.9c-0.6,0.6-1.2,1.2-1.8,1.7c2.4-0.6,4.8-1.5,7-2.6c1.6-0.8,3.1-1.7,4.6-2.7c-0.2,0-0.5,0-0.7,0
				C5.7,9.3,3.7,8.9,1.8,8.2"/>
		</g>
	</g>
</g>
</svg>
