<?xml version="1.0" encoding="utf-8"?>
<!-- Generator: Adobe Illustrator 26.4.1, SVG Export Plug-In . SVG Version: 6.00 Build 0)  -->
<svg version="1.1" id="Icons" xmlns="http://www.w3.org/2000/svg" xmlns:xlink="http://www.w3.org/1999/xlink" x="0px" y="0px"
	 viewBox="0 0 50 50" style="enable-background:new 0 0 50 50;" xml:space="preserve">
<style type="text/css">
	.st0{fill:none;stroke:#FFFFFF;stroke-width:2;stroke-linecap:round;stroke-linejoin:round;stroke-miterlimit:10;}
</style>
<g>
	<path class="st0" d="M49,27v-4c0-1.1-0.9-2-2-2h-3.4c-0.5-2.3-1.4-4.4-2.6-6.3l2.4-2.4c0.8-0.8,0.8-2,0-2.8l-2.8-2.8
		c-0.8-0.8-2-0.8-2.8,0L35.3,9c-1.9-1.2-4-2.1-6.3-2.6V3c0-1.1-0.9-2-2-2h-4c-1.1,0-2,0.9-2,2v3.4c-2.3,0.5-4.4,1.4-6.3,2.6
		l-2.4-2.4c-0.8-0.8-2-0.8-2.8,0L6.6,9.4c-0.8,0.8-0.8,2,0,2.8L9,14.7c-0.9,1.6-2.1,4-2.6,6.3H3c-1.1,0-2,0.9-2,2v4c0,1.1,0.9,2,2,2
		h3.4c0.5,2.3,1.4,4.4,2.6,6.3l-2.4,2.4c-0.8,0.8-0.8,2,0,2.8l2.8,2.8c0.8,0.8,2,0.8,2.8,0l2.4-2.4c1.9,1.2,4,2.1,6.3,2.6V47
		c0,1.1,0.9,2,2,2h4c1.1,0,2-0.9,2-2v-3.4c2.3-0.5,4.4-1.4,6.3-2.6l2.4,2.4c0.8,0.8,2,0.8,2.8,0l2.8-2.8c0.8-0.8,0.8-2,0-2.8
		L41,35.3c1.2-1.9,2.1-4,2.6-6.3H47C48.1,29,49,28.1,49,27z"/>
	<circle class="st0" cx="25" cy="25" r="10"/>
</g>
</svg>
