<?xml version="1.0" encoding="utf-8"?>
<!-- Generator: Adobe Illustrator 27.6.1, SVG Export Plug-In . SVG Version: 6.00 Build 0)  -->
<svg version="1.1" id="Layer_1" xmlns="http://www.w3.org/2000/svg" xmlns:xlink="http://www.w3.org/1999/xlink" x="0px" y="0px"
	 viewBox="0 0 45 45" style="enable-background:new 0 0 45 45;" xml:space="preserve">
<style type="text/css">
	.st0{clip-path:url(#SVGID_00000097495260666162200060000000407643219845033618_);}
	.st1{fill:#FFFFFF;}
</style>
<g id="Group_126" transform="translate(0 0)">
	<g>
		<defs>
			<rect id="SVGID_1_" y="0" width="45" height="45"/>
		</defs>
		<clipPath id="SVGID_00000045615473379397314410000005513560973802376853_">
			<use xlink:href="#SVGID_1_"  style="overflow:visible;"/>
		</clipPath>
		<g id="Group_125" style="clip-path:url(#SVGID_00000045615473379397314410000005513560973802376853_);">
			<path id="Path_74" class="st1" d="M25.5,27.3h-1.8v-7.8c0-0.3-0.1-0.6-0.2-0.8c-0.2-0.2-0.5-0.3-0.8-0.3h-2.5
				c-0.5,0-0.9,0.4-0.9,0.9c0,0.5,0.4,0.9,0.9,0.9H22v7.1h-1.8c-0.5,0-0.9,0.4-0.9,0.9c0,0.5,0.4,0.9,0.9,0.9h5.3
				c0.5,0,0.9-0.4,0.9-0.9C26.4,27.7,26,27.3,25.5,27.3"/>
			<path id="Path_75" class="st1" d="M22.4,17.4c0.6,0,1.1-0.5,1.1-1.1c0-0.6-0.5-1.1-1.1-1.1c-0.6,0-1.1,0.5-1.1,1.1c0,0,0,0,0,0
				C21.3,16.9,21.8,17.4,22.4,17.4"/>
			<path id="Path_76" class="st1" d="M44.2,18L39,17.8c-0.4-1.3-0.9-2.6-1.6-3.8l3.4-3.7c0.3-0.3,0.3-0.9,0-1.2l-5-5
				c-0.3-0.3-0.9-0.3-1.2,0l-3.7,3.4c-1.2-0.7-2.5-1.2-3.8-1.6l-0.2-5c0-0.5-0.4-0.8-0.9-0.8h-7.1c-0.5,0-0.9,0.4-0.9,0.8l-0.2,5
				c-1.3,0.4-2.6,0.9-3.8,1.6L10.2,4c-0.3-0.3-0.9-0.3-1.2,0l-5,5c-0.3,0.3-0.3,0.9,0,1.2L7.3,14c-0.7,1.2-1.2,2.5-1.5,3.8L0.8,18
				c-0.5,0-0.8,0.4-0.8,0.9V26c0,0.5,0.4,0.9,0.8,0.9l4.9,0.2c0.4,1.3,0.9,2.6,1.6,3.8l-3.4,3.7c-0.3,0.3-0.3,0.9,0,1.2l5,5
				c0.3,0.3,0.9,0.3,1.2,0l3.7-3.4c1.2,0.7,2.5,1.2,3.8,1.6l0.2,5.1c0,0.5,0.4,0.8,0.9,0.8h7.1c0.5,0,0.9-0.4,0.9-0.8l0.2-5.1
				c1.3-0.4,2.6-0.9,3.8-1.6l3.7,3.4c0.3,0.3,0.9,0.3,1.2,0l5-5c0.3-0.3,0.3-0.9,0-1.2l-3.4-3.7c0.7-1.2,1.2-2.5,1.6-3.8l5.2-0.2
				c0.5,0,0.8-0.4,0.8-0.9v-7.1C45,18.4,44.6,18.1,44.2,18 M43.2,25.2l-5,0.2c-0.4,0-0.7,0.3-0.8,0.7c-0.4,1.6-1,3.1-1.9,4.5
				c-0.2,0.3-0.2,0.8,0.1,1.1l3.3,3.6L35.1,39l-3.6-3.3c-0.3-0.3-0.7-0.3-1.1-0.1c-1.4,0.9-2.9,1.5-4.5,1.9
				c-0.4,0.1-0.7,0.4-0.7,0.8L25,43.2h-5.4l-0.2-4.9c0-0.4-0.3-0.7-0.7-0.8c-1.6-0.4-3.1-1-4.5-1.9c-0.3-0.2-0.8-0.2-1.1,0.1L9.6,39
				l-3.8-3.8l3.3-3.6c0.3-0.3,0.3-0.7,0.1-1.1c-0.9-1.4-1.5-2.9-1.9-4.5c-0.1-0.4-0.4-0.7-0.8-0.7l-4.7-0.2v-5.4l4.7-0.2
				c0.4,0,0.7-0.3,0.8-0.7c0.4-1.6,1-3.1,1.8-4.5c0.2-0.3,0.2-0.8-0.1-1.1L5.8,9.7l3.8-3.8l3.6,3.3c0.3,0.3,0.7,0.3,1.1,0.1
				c1.4-0.9,2.9-1.5,4.5-1.9c0.4-0.1,0.7-0.4,0.7-0.8l0.2-4.8H25l0.2,4.8c0,0.4,0.3,0.7,0.7,0.8c1.6,0.4,3.1,1,4.5,1.9
				c0.3,0.2,0.8,0.2,1.1-0.1l3.6-3.3l3.8,3.8l-3.3,3.6c-0.3,0.3-0.3,0.7-0.1,1.1c0.9,1.4,1.5,2.9,1.9,4.5c0.1,0.4,0.4,0.7,0.8,0.7
				l5,0.2V25.2z"/>
			<path id="Path_77" class="st1" d="M22.4,11c-6.4,0-11.5,5.1-11.5,11.5S16.1,34,22.4,34s11.5-5.1,11.5-11.5
				C33.9,16.1,28.8,11,22.4,11 M22.4,32.2c-5.4,0-9.7-4.4-9.7-9.7s4.4-9.7,9.7-9.7s9.7,4.4,9.7,9.7C32.1,27.8,27.8,32.2,22.4,32.2"
				/>
		</g>
	</g>
</g>
</svg>
