<svg id="Logo_-_Martin" data-name="Logo - Martin" xmlns="http://www.w3.org/2000/svg" xmlns:xlink="http://www.w3.org/1999/xlink" width="269" height="109" viewBox="0 0 269 109">
  <defs>
    <clipPath id="clip-path">
      <rect id="Rectangle_1" data-name="Rectangle 1" width="269" height="109" fill="#fff"/>
    </clipPath>
  </defs>
  <g id="Group_1" data-name="Group 1" clip-path="url(#clip-path)">
    <path id="Path_1" data-name="Path 1" d="M214.989,47.524c-5.414,5.419,2.546,13.355,7.943,8.07,5.459-5.347-2.391-13.628-7.943-8.07" fill="#0068b4"/>
    <path id="Path_2" data-name="Path 2" d="M264.661,90.783c-4.851,3.207-14.783,7.543-12.489-2.376.948-4.1,3.728-7.352,5.707-11.208,2.809-5.473,4.69-11.473,3.324-16.924-1.071-4.275-8.291-4.827-14.13-1.632-6.917,3.786-12.519,11.888-12.519,11.888s1.7-1.75,2.407-5.869c.5-2.9-.932-4.209-1.565-4.536-1.6-.828-3.16-.159-4.538,1.506-1.723,2.082-5.941,17.664-12.028,29.233a14.95,14.95,0,0,1-10.792,8.1c-2.4.2-5.57.139-6.348-2.934-.092-.365,23.55-31.9,12.646-33.725-6.506-1.087-17.185,21.056-17.289,33.265,0,.46-.472.788-.732,1.167a10.818,10.818,0,0,1-4.739,3.668,11.361,11.361,0,0,1-5.031.263c-6.568-.82-6.4-6.5-3.845-11.346C186.335,82.438,204.075,49,208.318,38.4c12.458-.175,26.019-.816,40.236-.816,4.427.405,4.828-5.015.921-6.247C231.837,29.672,211.09,28.3,211.09,28.3s1.811-6.384-2.855-7.336-9.859,6.888-9.859,6.888-40.9-2.117-56.943-1.775c-5.888.125-14.471-.594-19.842,2.281-4.088,2.188-12.455,12.291-6.959,16.669,3.1,2.471,10.287.891,13.941.591,6.754-.554,13.5-1.292,20.228-2.056,9.566-1.085,41.384-4.192,43.156-3.994-8.113,16.062-13.173,33.717-17.212,51.181-1.106,2.578-3.975,7.532-7.187,7.839-8.679.83-2.05-9.811-1.476-10.926,2.241-4.354,7.8-13.451,8.464-17.209,2.144-12.141-13.089-6-18.661-3.83.366-1.152,5.362-16.867-.787-14.8-4.286,1.031-7.635,5.384-9.129,9.3-1.79,4.688-1.083,7.623,3.075,10.429-1.183,4.208-3.221,18.6-10.73,26.343a12.944,12.944,0,0,1-3.8,2.589,3.2,3.2,0,0,1-3.284-.763c-3.853-3.752,6.552-20.221,7.819-22.741,1.794-2.776-6.615-5.752-7.9-4.47-3.877,5.429-7.75,10.912-12.4,15.718-.938.97-8.487,10.421-11.29,6.26s1.661-16.121,8.41-21.555c2.386-1.922,4.5-3.827,8.439-4.894s6.487,1.039,9.739,1.23c2.694,0,6.12-4.347,6.552-6.691.524-2.837-1.287-4.9-3.737-6.03-5.351-2.466-11.522-.871-16.517,1-12.815,4.8-23.292,15.98-26.183,29.317a23.029,23.029,0,0,0-.057,6.679c-2.361,2.162-8.413,6.252-10.776,1.973-2.224-4.027.384-11.132,2.648-14.516,7.186-12.379,14.164-23.953,21.257-36.385,5.131-9,21.395-30.571,11.722-40.218-12.268-8.8-24.275,8.8-31.012,16.835C90.353,12.6,91.152-1,78.6.058c-2.193.262-6.233,2.231-11.056,6.7-3.512,3.5-6.451,7.407-9.872,10.91C59.4,10.919,59.771,4.982,52.164,1.8,45.173-1.118,37.941,3.441,32.269,7.262c-5.288,3.561-10.193,8.82-15.97,11.469-2.407,1.1-6.574,2.194-8.308-.555C5.99,15,9.94,11.494,12,9.644,5.291,11.7-1.025,16.6.14,24.382c1.435,9.593,10.777,11.371,18.552,8.433C26.4,29.9,31.892,24.109,37.8,18.656c2.7-2.491,7.832-4.745,5.766.1C40.408,26.162,6.668,86.5,2.653,94.364c-4.377,7.672,6.233,18.618,12.011,10.3C21.694,94.541,53.8,28.181,57.452,22.787,61.244,17.181,65.956,12.6,71.64,12.6c1.325,0,3.8,1.379,2.677,6.462C73.07,24.688,68.065,34.206,66.649,37.2c-9.895,20.943-26.4,49.588-31.794,59.524-1.175,2.163-1.826,3.115-1.852,5.546s7.975,7.2,10.9,3.344c3.385-4.91,6.024-10.457,8.857-15.687,6.085-11.233,25.865-48.8,30.632-56.793,5.239-8.78,9.617-15.463,17.7-19.8,1.678-.767,2.892-.942,3.72-.652,1.763.619,2.742,2.135,1.738,5.748-1.475,5.308-6.47,12.384-10.184,18.958C87.552,53,80.288,64.443,75.66,72.423c-1.31,2.259-5.973,11.211-6.039,11.371-2.755,6.766-4.86,16.549.9,22.01,8.03,7.613,19.367-1.614,24.451-7.79,1.78,6.541,6.242,12.816,13.324,8.757,3.238-1.856,5.7-4.464,8.344-7.051,1.655-1.621,7.832-9.333,7.832-9.333s-2.449,8.706-2.275,11.474c.79,5.627,2.9,6.335,6.812,6.335s8.945-3.231,11.428-5.938c3.954-4.312,9.776-13.191,13.386-30.242.644-2.016,7.036.423,7.491,1.175,1.618,2.678-1.347,6.266-2.607,8.7-2.621,5.068-5.514,10.5-6.726,16.132-.912,4.242-.155,8.362,4.235,10.2,6.628,2.775,13.731-2.37,17.043-7.9.984,6.343,5.9,8.5,11.106,8.441,9.03-.1,14.131-9.707,14.3-9.362,1.068,2.218,3.7,6.58,7.25,6.913,7.267.682,10.534-6.145,11.834-8.038.167,4.449-.531,8.568,3.892,9.344,6.979.387,6.7-3.676,6.656-8.958a48.2,48.2,0,0,1,2.382-13.943c1.849-4.923,6.48-14.116,12.584-14.852,6.135-.492,1.173,8.432-1.355,13.255-.555,1.058-7.09,15-.5,21.3,5.322,5.088,12.287,2.844,17.349-1.037,5.576-4.275,8.255-10.5,10.243-17.075-.528,1.4-3.549,4.034-4.339,4.469" fill="#fff"/>
    <path id="Path_3" data-name="Path 3" d="M214.989,47.524c-5.414,5.419,2.546,13.355,7.943,8.07,5.459-5.347-2.391-13.628-7.943-8.07" fill="#fff"/>
  </g>
</svg>
