<?xml version="1.0" encoding="utf-8"?>
<!-- Generator: Adobe Illustrator 26.0.3, SVG Export Plug-In . SVG Version: 6.00 Build 0)  -->
<svg version="1.1" id="Group_16" xmlns="http://www.w3.org/2000/svg" xmlns:xlink="http://www.w3.org/1999/xlink" x="0px" y="0px"
	 viewBox="0 0 269 109" style="enable-background:new 0 0 269 109;" xml:space="preserve">
<style type="text/css">
	.st0{clip-path:url(#SVGID_00000085222279133837641760000007398970880733969309_);}
	.st1{fill:#0068B4;}
	.st2{fill:#002575;}
</style>
<g>
	<defs>
		<rect id="SVGID_1_" width="269" height="109"/>
	</defs>
	<clipPath id="SVGID_00000132791366457019725860000002753194327358688151_">
		<use xlink:href="#SVGID_1_"  style="overflow:visible;"/>
	</clipPath>
	<g id="Group_15" style="clip-path:url(#SVGID_00000132791366457019725860000002753194327358688151_);">
		<path id="Path_36" class="st1" d="M215,47.5c-5.4,5.4,2.5,13.4,7.9,8.1C228.4,50.2,220.5,42,215,47.5"/>
		<path id="Path_37" class="st2" d="M264.7,90.8c-4.9,3.2-14.8,7.5-12.5-2.4c0.9-4.1,3.7-7.4,5.7-11.2c2.8-5.5,4.7-11.5,3.3-16.9
			c-1.1-4.3-8.3-4.8-14.1-1.6c-6.9,3.8-12.5,11.9-12.5,11.9s1.7-1.8,2.4-5.9c0.5-2.9-0.9-4.2-1.6-4.5c-1.6-0.8-3.2-0.2-4.5,1.5
			c-1.7,2.1-5.9,17.7-12,29.2c-2.1,4.3-6.1,7.3-10.8,8.1c-2.4,0.2-5.6,0.1-6.3-2.9c-0.1-0.4,23.6-31.9,12.6-33.7
			c-6.5-1.1-17.2,21.1-17.3,33.3c0,0.5-0.5,0.8-0.7,1.2c-1.2,1.6-2.8,2.9-4.7,3.7c-1.6,0.5-3.4,0.6-5,0.3c-6.6-0.8-6.4-6.5-3.8-11.3
			c3.6-6.9,21.4-40.3,25.6-50.9c12.5-0.2,26-0.8,40.2-0.8c4.4,0.4,4.8-5,0.9-6.2c-17.6-1.7-38.4-3-38.4-3s1.8-6.4-2.9-7.3
			s-9.9,6.9-9.9,6.9s-40.9-2.1-56.9-1.8c-5.9,0.1-14.5-0.6-19.8,2.3c-4.1,2.2-12.5,12.3-7,16.7c3.1,2.5,10.3,0.9,13.9,0.6
			c6.8-0.6,13.5-1.3,20.2-2.1c9.6-1.1,41.4-4.2,43.2-4c-8.1,16.1-13.2,33.7-17.2,51.2c-1.1,2.6-4,7.5-7.2,7.8
			c-8.7,0.8-2.1-9.8-1.5-10.9c2.2-4.4,7.8-13.5,8.5-17.2c2.1-12.1-13.1-6-18.7-3.8c0.4-1.2,5.4-16.9-0.8-14.8
			c-4.3,1-7.6,5.4-9.1,9.3c-1.8,4.7-1.1,7.6,3.1,10.4c-1.2,4.2-3.2,18.6-10.7,26.3c-1.1,1.1-2.4,2-3.8,2.6c-1.2,0.4-2.4,0.1-3.3-0.8
			c-3.9-3.8,6.6-20.2,7.8-22.7c1.8-2.8-6.6-5.8-7.9-4.5c-3.9,5.4-7.8,10.9-12.4,15.7c-0.9,1-8.5,10.4-11.3,6.3s1.7-16.1,8.4-21.6
			c2.4-1.9,4.5-3.8,8.4-4.9s6.5,1,9.7,1.2c2.7,0,6.1-4.3,6.6-6.7c0.5-2.8-1.3-4.9-3.7-6c-5.4-2.5-11.5-0.9-16.5,1
			c-12.8,4.8-23.3,16-26.2,29.3c-0.3,2.2-0.4,4.5-0.1,6.7c-2.4,2.2-8.4,6.3-10.8,2c-2.2-4,0.4-11.1,2.6-14.5
			c7.2-12.4,14.2-24,21.3-36.4c5.1-9,21.4-30.6,11.7-40.2c-12.3-8.8-24.3,8.8-31,16.8c2.4-8.6,3.2-22.2-9.3-21.2
			c-2.2,0.3-6.2,2.2-11.1,6.7c-3.5,3.5-6.5,7.4-9.9,10.9c1.7-6.7,2.1-12.7-5.5-15.9c-7-2.9-14.2,1.6-19.9,5.5
			c-5.3,3.6-10.2,8.8-16,11.5c-2.4,1.1-6.6,2.2-8.3-0.6c-2-3.2,1.9-6.7,4-8.5c-6.7,2.1-13,7-11.9,14.7c1.4,9.6,10.8,11.4,18.6,8.4
			c7.7-2.9,13.2-8.7,19.1-14.2c2.7-2.5,7.8-4.7,5.8,0.1C40.4,26.2,6.7,86.5,2.7,94.4c-4.4,7.7,6.2,18.6,12,10.3
			c7-10.1,39.1-76.5,42.8-81.9c3.8-5.6,8.5-10.2,14.2-10.2c1.3,0,3.8,1.4,2.7,6.5c-1.2,5.6-6.3,15.1-7.7,18.1
			c-9.9,20.9-26.4,49.6-31.8,59.5c-1.2,2.2-1.8,3.1-1.9,5.5s8,7.2,10.9,3.3c3.4-4.9,6-10.5,8.9-15.7c6.1-11.2,25.9-48.8,30.6-56.8
			c5.2-8.8,9.6-15.5,17.7-19.8c1.7-0.8,2.9-0.9,3.7-0.7c1.8,0.6,2.7,2.1,1.7,5.7c-1.5,5.3-6.5,12.4-10.2,19
			c-8.8,15.6-16.1,27.1-20.7,35c-1.3,2.3-6,11.2-6,11.4c-2.8,6.8-4.9,16.5,0.9,22c8,7.6,19.4-1.6,24.5-7.8
			c1.8,6.5,6.2,12.8,13.3,8.8c3.2-1.9,5.7-4.5,8.3-7.1c1.7-1.6,7.8-9.3,7.8-9.3s-2.4,8.7-2.3,11.5c0.8,5.6,2.9,6.3,6.8,6.3
			s8.9-3.2,11.4-5.9c4-4.3,9.8-13.2,13.4-30.2c0.6-2,7,0.4,7.5,1.2c1.6,2.7-1.3,6.3-2.6,8.7c-2.6,5.1-5.5,10.5-6.7,16.1
			c-0.9,4.2-0.2,8.4,4.2,10.2c6.6,2.8,13.7-2.4,17-7.9c1,6.3,5.9,8.5,11.1,8.4c9-0.1,14.1-9.7,14.3-9.4c1.1,2.2,3.7,6.6,7.2,6.9
			c7.3,0.7,10.5-6.1,11.8-8c0.2,4.4-0.5,8.6,3.9,9.3c7,0.4,6.7-3.7,6.7-9c0.1-4.7,0.9-9.4,2.4-13.9c1.8-4.9,6.5-14.1,12.6-14.9
			c6.1-0.5,1.2,8.4-1.4,13.3c-0.6,1.1-7.1,15-0.5,21.3c5.3,5.1,12.3,2.8,17.3-1c5.6-4.3,8.3-10.5,10.2-17.1
			C268.5,87.7,265.5,90.3,264.7,90.8"/>
		<path id="Path_38" class="st2" d="M215,47.5c-5.4,5.4,2.5,13.4,7.9,8.1C228.4,50.2,220.5,42,215,47.5"/>
	</g>
</g>
</svg>
