<?xml version="1.0" encoding="utf-8"?>
<!-- Generator: Adobe Illustrator 27.1.1, SVG Export Plug-In . SVG Version: 6.00 Build 0)  -->
<svg version="1.1" id="Layer_1" xmlns="http://www.w3.org/2000/svg" xmlns:xlink="http://www.w3.org/1999/xlink" x="0px" y="0px"
	 viewBox="0 0 51.7 45.8" style="enable-background:new 0 0 51.7 45.8;" xml:space="preserve">
<style type="text/css">
	.st0{clip-path:url(#SVGID_00000147182580641165641220000001807322851635972265_);}
	.st1{fill:none;stroke:#FFFFFF;stroke-width:2;stroke-linecap:round;stroke-linejoin:round;}
	.st2{fill:none;stroke:#FFFFFF;stroke-width:1.5;stroke-linecap:round;stroke-linejoin:round;}
	.st3{clip-path:url(#SVGID_00000007427652313335026930000014786580352363277234_);}
</style>
<g id="Group_116" transform="translate(0 0)">
	<g id="Group_113" transform="translate(0 0)">
		<g>
			<g>
				<defs>
					<rect id="SVGID_1_" width="51.7" height="45.8"/>
				</defs>
				<clipPath id="SVGID_00000150092115491643930290000014079268720337687689_">
					<use xlink:href="#SVGID_1_"  style="overflow:visible;"/>
				</clipPath>
				<g id="Group_112" style="clip-path:url(#SVGID_00000150092115491643930290000014079268720337687689_);">
					<path id="Path_47" class="st1" d="M39.8,32.8l1.9,6.8L40.9,41l-30,4L0.8,8.7l0.8-1.3l4.1-0.5"/>
				</g>
			</g>
		</g>
	</g>
	<path id="Path_48" class="st2" d="M27.1,4l4.5-0.6L35,15.6"/>
	<line id="Line_3" class="st2" x1="12" y1="17.4" x2="25.8" y2="15.6"/>
	<line id="Line_4" class="st2" x1="13.5" y1="22.1" x2="20.4" y2="21.2"/>
	<g id="Group_115" transform="translate(0 0)">
		<g>
			<g>
				<defs>
					<rect id="SVGID_00000058584181276936626100000006825941140531501208_" width="51.7" height="45.8"/>
				</defs>
				<clipPath id="SVGID_00000047774327554156736010000015064834287849386425_">
					<use xlink:href="#SVGID_00000058584181276936626100000006825941140531501208_"  style="overflow:visible;"/>
				</clipPath>
				<g id="Group_114" style="clip-path:url(#SVGID_00000047774327554156736010000015064834287849386425_);">
					<path id="Path_49" class="st2" d="M15.4,36.8c0,0,2.9-3.2,3.4-1.8s0.6,1.8,1.4,1.7c0.8-0.1,2.6-1.8,2.6-1.8"/>
					<path id="Path_50" class="st2" d="M33.4,30.7l-6.3,2.4l2.4-6.3l17-17.5c0.6-0.6,1.7-0.6,2.3,0l0,0l1.5,1.6
						c0.6,0.6,0.6,1.7,0,2.3L33.4,30.7z"/>
					<line id="Line_5" class="st2" x1="44" y1="12" x2="47.9" y2="15.8"/>
					<path id="Path_51" class="st2" d="M18.8,3.2c-0.6-1.6-2.1-2.6-3.8-2.4c-1.2,0.1-2.2,1.2-2.1,2.5c0,0.2,0.1,0.4,0.2,0.7
						l-2.9,0.4C9.4,4.5,8.7,5.2,8.8,6.1c0,0.2,0,0.3,0.1,0.4l0.9,2.8l15.4-2l-0.9-2.8c-0.4-1.1-1.4-1.7-2.5-1.6L18.8,3.2z"/>
				</g>
			</g>
		</g>
	</g>
</g>
</svg>
