<?xml version="1.0" encoding="utf-8"?>
<!-- Generator: Adobe Illustrator 27.0.0, SVG Export Plug-In . SVG Version: 6.00 Build 0)  -->
<svg version="1.1" id="Layer_1" xmlns="http://www.w3.org/2000/svg" xmlns:xlink="http://www.w3.org/1999/xlink" x="0px" y="0px"
	 viewBox="0 0 290 60" style="enable-background:new 0 0 290 60;" xml:space="preserve">
<style type="text/css">
	.st0{opacity:0.734;fill:#394F86;enable-background:new    ;}
	.st1{enable-background:new    ;}
	.st2{fill:#FFFFFF;}
	.st3{clip-path:url(#SVGID_00000136378073945116710930000016520194368702400939_);}
	.st4{fill:none;stroke:#FFFFFF;stroke-width:2;stroke-linecap:round;stroke-linejoin:round;}
	.st5{fill:none;stroke:#FFFFFF;stroke-width:1.5;stroke-linecap:round;stroke-linejoin:round;}
	.st6{clip-path:url(#SVGID_00000112631176970017319590000002177335762880155815_);}
</style>
<rect id="Blue_Box" class="st0" width="290" height="60"/>
<g class="st1">
	<path class="st2" d="M100.7,18.5h4.6c4.5,0,6.7,1.7,6.7,6c0,2.7-0.8,4.6-2.8,5.3l3.2,11.4h-3.1l-3-10.6h-2.5v10.6h-3.2V18.5z
		 M105,28.2c2.7,0,3.8-0.8,3.8-3.8c0-2.7-0.7-3.8-3.6-3.8h-1.4v7.5H105z"/>
	<path class="st2" d="M115.2,18.5h8.8v2.4h-5.6v7.5h4.6v2.2h-4.6v8.3h5.7v2.3h-8.8V18.5z"/>
	<path class="st2" d="M132.9,41.4c-0.2,0-0.3,0-0.5,0c-4.6,0-6.2-2.9-6.2-7.4v-8.6c0-4.5,1.6-7.2,6.2-7.2c4.6,0,6.2,2.7,6.2,7.2v8.6
		c0,3.3-0.9,5.8-3.3,6.8c0.7,0.9,1.5,1.9,2.2,2.4l-0.5,2.5C135.5,45,134,42.9,132.9,41.4z M135.4,34.7v-9.9c0-2.5-0.5-4.1-3-4.1
		s-3,1.5-3,4.1v9.9c0,2.5,0.5,4.2,3,4.2S135.4,37.3,135.4,34.7z"/>
	<path class="st2" d="M141.5,33.5v-15h3v15.2c0,2.9,0.4,5.3,3,5.3s3-2.3,3-5.3V18.5h3v15c0,4.8-1.1,7.9-6,7.9
		C142.6,41.4,141.5,38.3,141.5,33.5z"/>
	<path class="st2" d="M156.9,18.5h8.8v2.4h-5.6v7.5h4.6v2.2h-4.6v8.3h5.7v2.3h-8.8V18.5z"/>
	<path class="st2" d="M167.7,34.8l2.8-0.8c0.2,2.4,0.8,4.9,3.2,4.9c1.6,0,2.5-0.9,2.5-2.7c0-2-1-3.1-2.5-4.4l-3.8-3.4
		c-1.5-1.3-2.2-2.7-2.2-5c0-3.3,2-5.2,5.3-5.2c3.6,0,5.3,1.9,5.7,5.9l-2.7,0.7c-0.2-2.2-0.7-4.1-3-4.1c-1.6,0-2.5,0.8-2.5,2.5
		c0,1.4,0.4,2.2,1.5,3.1l3.8,3.4c1.7,1.5,3.2,3.5,3.2,6.4c0,3.4-2.3,5.4-5.4,5.4C169.7,41.4,167.9,38.7,167.7,34.8z"/>
	<path class="st2" d="M184.1,20.8h-3.8v-2.4H191v2.4h-3.7v20.3h-3.2V20.8z"/>
	<path class="st2" d="M205.9,41.4c-0.2,0-0.3,0-0.5,0c-4.6,0-6.2-2.9-6.2-7.4v-8.6c0-4.5,1.6-7.2,6.2-7.2c4.6,0,6.2,2.7,6.2,7.2v8.6
		c0,3.3-0.9,5.8-3.3,6.8c0.7,0.9,1.5,1.9,2.2,2.4l-0.5,2.5C208.5,45,206.9,42.9,205.9,41.4z M208.4,34.7v-9.9c0-2.5-0.5-4.1-3-4.1
		s-3,1.5-3,4.1v9.9c0,2.5,0.5,4.2,3,4.2S208.4,37.3,208.4,34.7z"/>
	<path class="st2" d="M214.5,33.5v-15h3v15.2c0,2.9,0.4,5.3,3,5.3s3-2.3,3-5.3V18.5h3v15c0,4.8-1.1,7.9-6,7.9
		C215.6,41.4,214.5,38.3,214.5,33.5z"/>
	<path class="st2" d="M229.5,34v-8.6c0-4.5,1.6-7.2,6.2-7.2c4.6,0,6.2,2.7,6.2,7.2v8.6c0,4.5-1.6,7.3-6.2,7.3
		C231.1,41.4,229.5,38.5,229.5,34z M238.7,34.7v-9.9c0-2.5-0.5-4.1-3-4.1c-2.5,0-3,1.5-3,4.1v9.9c0,2.5,0.5,4.2,3,4.2
		C238.2,38.9,238.7,37.3,238.7,34.7z"/>
	<path class="st2" d="M247.5,20.8h-3.8v-2.4h10.7v2.4h-3.7v20.3h-3.2V20.8z"/>
	<path class="st2" d="M256.6,18.5h8.8v2.4h-5.6v7.5h4.6v2.2h-4.6v8.3h5.7v2.3h-8.8V18.5z"/>
</g>
<g id="Group_116" transform="translate(0 0)">
	<g id="Group_113" transform="translate(0 0)">
		<g>
			<defs>
				<rect id="SVGID_1_" x="22.2" y="7" width="51.7" height="45.8"/>
			</defs>
			<clipPath id="SVGID_00000177470476119296262740000004977569216667213958_">
				<use xlink:href="#SVGID_1_"  style="overflow:visible;"/>
			</clipPath>
			<g id="Group_112" style="clip-path:url(#SVGID_00000177470476119296262740000004977569216667213958_);">
				<path id="Path_47" class="st4" d="M62,39.8l1.9,6.8L63.1,48l-30,4L23,15.7l0.8-1.3l4.1-0.5"/>
			</g>
		</g>
	</g>
	<path id="Path_48" class="st5" d="M49.3,11l4.5-0.6l3.4,12.2"/>
	<line id="Line_3" class="st5" x1="34.2" y1="24.4" x2="48" y2="22.6"/>
	<line id="Line_4" class="st5" x1="35.7" y1="29.1" x2="42.6" y2="28.2"/>
	<g id="Group_115" transform="translate(0 0)">
		<g>
			<defs>
				<rect id="SVGID_00000085963652815509104770000007696751248719067020_" x="22.2" y="7" width="51.7" height="45.8"/>
			</defs>
			<clipPath id="SVGID_00000030467384542515495390000004675392554463051649_">
				<use xlink:href="#SVGID_00000085963652815509104770000007696751248719067020_"  style="overflow:visible;"/>
			</clipPath>
			<g id="Group_114" style="clip-path:url(#SVGID_00000030467384542515495390000004675392554463051649_);">
				<path id="Path_49" class="st5" d="M37.6,43.8c0,0,2.9-3.2,3.4-1.8s0.6,1.8,1.4,1.7c0.8-0.1,2.6-1.8,2.6-1.8"/>
				<path id="Path_50" class="st5" d="M55.6,37.7l-6.3,2.4l2.4-6.3l17-17.5c0.6-0.6,1.7-0.6,2.3,0c0,0,0,0,0,0l1.5,1.6
					c0.6,0.6,0.6,1.7,0,2.3L55.6,37.7z"/>
				<line id="Line_5" class="st5" x1="66.2" y1="19" x2="70.1" y2="22.8"/>
				<path id="Path_51" class="st5" d="M41,10.2c-0.6-1.6-2.1-2.6-3.8-2.4C36,7.9,35,9,35.1,10.3c0,0.2,0.1,0.4,0.2,0.7l-2.9,0.4
					c-0.8,0.1-1.5,0.8-1.4,1.7c0,0.2,0,0.3,0.1,0.4l0.9,2.8l15.4-2l-0.9-2.8c-0.4-1.1-1.4-1.7-2.5-1.6L41,10.2z"/>
			</g>
		</g>
	</g>
</g>
</svg>
