<?xml version="1.0" encoding="utf-8"?>
<!-- Generator: Adobe Illustrator 27.1.1, SVG Export Plug-In . SVG Version: 6.00 Build 0)  -->
<svg version="1.1" id="Layer_1" xmlns="http://www.w3.org/2000/svg" xmlns:xlink="http://www.w3.org/1999/xlink" x="0px" y="0px"
	 viewBox="0 0 40.8 41" style="enable-background:new 0 0 40.8 41;" xml:space="preserve">
<style type="text/css">
	.st0{clip-path:url(#SVGID_00000010288430923720514220000007694279122267235740_);}
	.st1{fill:none;stroke:#FFFFFF;stroke-width:2;stroke-linecap:round;stroke-linejoin:round;}
</style>
<g id="Group_109" transform="translate(29 11)">
	<g>
		<defs>
			<rect id="SVGID_1_" x="-29" y="-11" width="40.8" height="41"/>
		</defs>
		<clipPath id="SVGID_00000155854670430039164650000006136502748960066437_">
			<use xlink:href="#SVGID_1_"  style="overflow:visible;"/>
		</clipPath>
		
			<g id="Group_108" transform="translate(0 0)" style="clip-path:url(#SVGID_00000155854670430039164650000006136502748960066437_);">
			<path id="Path_45" class="st1" d="M-13.1,11.5c-0.8,0-1.5-0.7-1.5-1.5V-1.3c0-0.8,0.7-1.5,1.5-1.5c0.3,0,0.5,0.1,0.7,0.2L-2.1,3
				c0.7,0.4,1,1.3,0.6,2c-0.1,0.3-0.3,0.5-0.6,0.6l-10.3,5.7C-12.6,11.5-12.8,11.5-13.1,11.5z"/>
			<line id="Line_1" class="st1" x1="-15.3" y1="25.8" x2="10.7" y2="25.8"/>
			<line id="Line_2" class="st1" x1="-27.9" y1="25.8" x2="-21.6" y2="25.8"/>
			<path id="Path_46" class="st1" d="M-15.3,25.8c0,1.7-1.4,3.1-3.1,3.1c-1.7,0-3.1-1.4-3.1-3.1c0-1.7,1.4-3.1,3.1-3.1c0,0,0,0,0,0
				C-16.7,22.6-15.3,24-15.3,25.8L-15.3,25.8z"/>
			<path id="Rectangle_60" class="st1" d="M-23.9-9.9H6.7c2.2,0,4,1.8,4,4v20.7c0,2.2-1.8,4-4,4h-30.6c-2.2,0-4-1.8-4-4V-5.9
				C-27.9-8.1-26.1-9.9-23.9-9.9z"/>
		</g>
	</g>
</g>
</svg>
